<svg width="21" height="18" viewBox="0 0 21 18" fill="none" xmlns="http://www.w3.org/2000/svg">
<path d="M19.0683 2.06759C16.8425 -0.801154 12.4569 -0.442704 10.6872 2.62866C8.91754 -0.442705 4.53197 -0.801149 2.30622 2.06759L1.99686 2.46632C0.114483 4.8925 0.386273 8.35235 2.62441 10.4548L9.59459 17.0026C9.69876 17.1005 9.81259 17.2075 9.91996 17.2902C10.0434 17.3853 10.2161 17.4954 10.4465 17.5406C10.6055 17.5718 10.769 17.5718 10.928 17.5406C11.1584 17.4954 11.331 17.3853 11.4545 17.2902C11.5619 17.2075 11.6757 17.1005 11.7799 17.0026L18.7501 10.4548C20.9882 8.35235 21.26 4.89249 19.3776 2.46631L19.0683 2.06759Z" fill="#FF0303"/>
</svg>
