<svg width="22" height="20" viewBox="0 0 22 20" fill="none" xmlns="http://www.w3.org/2000/svg">
<path d="M19.321 3.06762C17.0953 0.198877 12.7097 0.557326 10.94 3.62869C9.17031 0.557325 4.78474 0.198882 2.55899 3.06762L2.24964 3.46635C0.36726 5.89253 0.63905 9.35238 2.87718 11.4549L9.84737 18.0026C9.95153 18.1005 10.0654 18.2075 10.1727 18.2902C10.2962 18.3853 10.4689 18.4954 10.6993 18.5406C10.8583 18.5718 11.0218 18.5718 11.1807 18.5406C11.4112 18.4954 11.5838 18.3853 11.7073 18.2902C11.8147 18.2075 11.9285 18.1005 12.0327 18.0026L19.0028 11.4549C21.241 9.35238 21.5128 5.89252 19.6304 3.46634L19.321 3.06762Z" stroke="black"/>
</svg>
